PathFileType	4	(X/Y/Z)	D:\TRACE\spot_10-12-23\spot_body_motion_3_3-platform.trc
DataRate	CameraRate	NumFrames	NumMarkers	Units	OrigDataRate	OrigDataStartFrame	OrigNumFrames
100.00	100.00	      30	5	mm	100.00	2626	      7000
Frame#	Time	Left_Front			Right_Front			Left_Aft			Right_Aft			Post			
		X1	Y1	Z1	X2	Y2	Z2	X3	Y3	Z3	X4	Y4	Z4	X5	Y5	Z5	

2626	26.250	-790.79645	71.12983	-622.85773	781.80042	75.14073	-616.00635	-707.52893	-40.07263	509.52249	710.25574	-43.57354	596.04492	-8.32785	836.19922	-867.58063	
2627	26.260	-791.22009	71.03362	-622.83405	781.50323	75.03489	-616.01569	-707.95374	-40.05730	509.44519	709.86432	-43.37592	596.13300	-8.67390	836.00610	-867.69208	
2628	26.270	-791.59344	71.00746	-622.79047	781.13391	74.92128	-616.10303	-708.29034	-39.93958	509.44876	709.07330	-43.49605	595.33160	-8.93841	835.91132	-867.72247	
2629	26.280	-791.95190	70.99890	-622.78674	780.94672	74.87093	-615.99402	-708.59882	-39.71382	509.39612	708.76556	-43.41419	595.24225	-9.30136	835.84241	-867.84778	
2630	26.290	-792.35663	71.07372	-622.83435	780.49438	74.77659	-616.05994	-708.87421	-39.63625	509.48657	708.47614	-43.29992	595.24506	-9.68406	835.74255	-868.09088	
2631	26.300	-792.51727	71.01878	-622.96118	780.12872	74.55776	-616.04279	-709.17761	-39.52181	509.53238	708.24695	-43.33396	595.33368	-10.12775	835.57129	-868.32837	
2632	26.310	-792.88861	70.74647	-622.94489	779.76733	74.55413	-616.10144	-709.47864	-39.51814	509.49582	707.91602	-43.27948	595.37317	-10.36348	835.52472	-868.45361	
2633	26.320	-793.26428	70.63334	-623.05646	779.35059	74.42758	-616.20551	-709.84314	-39.53834	509.45868	707.51410	-43.29068	595.42560	-10.57534	835.45972	-868.49286	
2634	26.330	-793.54907	70.58933	-623.06934	779.04114	74.34827	-616.24377	-710.29352	-39.60080	509.43744	707.14349	-43.29216	595.42041	-10.80249	835.41107	-868.53693	
2635	26.340	-793.94348	70.61617	-623.05609	778.71344	74.36038	-616.40845	-710.54706	-39.61874	509.42249	706.84875	-43.24974	595.47430	-10.97917	835.33344	-868.59882	
2636	26.350	-794.35309	70.60161	-623.09039	778.41077	74.41772	-616.38159	-710.80298	-39.58196	509.42395	706.60840	-43.16731	595.44427	-11.23111	835.24188	-868.63684	
2637	26.360	-794.62646	70.54309	-623.05243	778.09729	74.39407	-616.38013	-711.28101	-39.43282	509.44638	706.28119	-43.13644	595.36224	-11.66688	835.15790	-868.66986	
2638	26.370	-794.75623	70.46394	-622.98969	777.66943	74.39059	-616.39532	-711.60187	-39.45727	509.41208	705.85028	-43.08380	595.37531	-12.07866	834.99176	-868.67590	
2639	26.380	-795.21271	70.39629	-622.98486	777.25616	74.34385	-616.37372	-711.96460	-39.47102	509.41592	705.58405	-43.04202	595.40826	-12.65414	835.00311	-868.80542	
2640	26.390	-795.71887	70.35575	-623.11713	776.89917	74.22873	-616.37494	-712.16956	-39.41938	509.41776	705.27283	-43.02701	595.36938	-13.15763	834.99567	-868.85815	
2641	26.400	-796.07849	70.49741	-623.14807	776.55292	74.18890	-616.36761	-712.45001	-39.35981	509.37283	704.94073	-42.94222	595.31970	-13.48026	834.95062	-869.01459	
2642	26.410	-796.21271	70.37917	-623.09540	776.33234	74.08247	-616.32965	-712.74414	-39.31093	509.29904	704.60553	-42.78637	595.28296	-13.89198	834.82007	-869.14117	
2643	26.420	-796.56354	70.25908	-623.04877	776.10138	74.01558	-616.38660	-713.16864	-39.26170	509.33466	704.42456	-42.71735	595.23993	-14.11341	834.70227	-869.25720	
2644	26.430	-796.97192	70.19600	-623.09485	775.99670	73.94428	-616.36951	-713.53638	-39.20628	509.30804	704.13080	-42.72722	595.21448	-14.24285	834.58301	-869.33307	
2645	26.440	-797.36670	70.07282	-623.17053	775.77435	73.90125	-616.45697	-713.92609	-39.20757	509.31567	703.81226	-42.62846	595.15460	-14.30453	834.50415	-869.35675	
2646	26.450	-797.64563	69.96449	-623.15057	775.42218	73.65472	-616.40845	-714.29181	-39.12449	509.30902	703.52710	-42.56952	595.12268	-14.63272	834.41534	-869.48975	
2647	26.460	-797.96161	69.91327	-623.14648	774.86761	73.60440	-616.48724	-714.50836	-39.01973	509.34036	703.30597	-42.32453	595.11548	-14.88072	834.20880	-869.67389	
2648	26.470	-798.18298	69.87592	-623.20917	774.47974	73.51424	-616.40668	-714.84546	-38.92037	509.35443	703.13025	-42.16828	595.01831	-15.47417	834.06042	-869.84479	
2649	26.480	-798.51782	69.80049	-623.33289	774.12164	73.32498	-616.46210	-715.14166	-38.87828	509.28165	703.07654	-42.04618	594.87067	-15.80416	833.89154	-869.99585	
2650	26.490	-798.86157	69.59473	-623.44067	773.77026	73.15951	-616.48755	-715.44189	-38.85284	509.22964	701.74677	-42.36521	595.25055	-16.16208	833.85138	-870.11548	
2651	26.500	-799.03943	69.43845	-623.43677	773.36267	73.11628	-616.61121	-715.72601	-38.77360	509.17813	701.52783	-42.23686	595.23785	-16.87916	833.82739	-870.28290	
2652	26.510	-799.33466	69.24232	-623.38342	773.21936	73.04846	-616.60773	-715.97522	-38.63870	509.18051	701.26288	-42.10629	595.23126	-16.74400	833.61682	-870.45288	
2653	26.520	-799.64941	69.11050	-623.37433	773.03784	72.94652	-616.66980	-716.27704	-38.53463	509.16559	701.07092	-42.02145	595.23322	-16.86820	833.41028	-870.53491	
2654	26.530	-799.87506	68.99519	-623.41138	772.80505	72.88375	-616.65582	-716.60028	-38.43256	509.14081	700.91339	-41.96109	595.18604	-17.02065	833.10730	-870.63428	
2655	26.540	-800.28802	68.97457	-623.47974	772.53790	72.75704	-616.71722	-716.67712	-38.43220	509.28357	701.60474	-41.54667	594.80731	-17.22026	832.94653	-870.81750	
